<?xml version="1.0" encoding="UTF-8" standalone="no"?>
<svg xmlns="http://www.w3.org/2000/svg" version="1.1" width="70" height="90">
  <rect x="10" y="10" width="50" height="50" />
  <g>
    <path style="fill:white" d="M 14.84375,5.28125 7.3125,12.8125 20.15625,60.71875 30.4375,63.46875 65.5,28.375 62.75,18.125 14.84375,5.28125 z m 11.4375,18.9375 17.09375,4.59375 -12.53125,12.53125 -4.5625,-17.125 z" />
    <path style="fill:none;stroke:black" d="M 14.840492,5.281173 25.845395,46.352035 43.383871,28.81356 M 20.163057,60.713669 50.229014,30.647711 26.271012,24.228183 M 65.507723,28.387944 24.436861,17.38304 30.856388,41.341042 M 7.324002,12.797663 20.163057,60.713669 30.430773,63.464894 65.507723,28.387944 62.756497,18.120228 14.840491,5.2811732 7.324002,12.797663" />
  </g>
  <path d="m 55.220747,65.664793 4.779259,0 0,17.919069 -4.779259,0 0,-17.919069 m -2.950994,0.403526 -0.416136,3.720004 c -0.731407,-0.411918 -1.496424,-0.718766 -2.295053,-0.920543 -0.798659,-0.210155 -1.61832,-0.31524 -2.458986,-0.315255 -1.958792,1.5e-5 -3.505639,0.542252 -4.640547,1.626714 -1.126516,1.084488 -1.68977,2.564081 -1.689764,4.438784 -6e-6,1.807466 0.5044,3.245026 1.513221,4.312682 1.008806,1.067666 2.366501,1.601496 4.073089,1.601493 0.36148,3e-6 0.693548,-0.01681 0.996205,-0.05044 0.302631,-0.03362 0.588462,-0.08406 0.857492,-0.151322 l 0,-3.745224 -2.76163,0 0,-3.379529 7.200414,0 0,9.987265 c -0.941577,0.269017 -1.920967,0.47078 -2.938172,0.605288 -1.017236,0.134509 -2.059676,0.201763 -3.127325,0.201763 -3.488826,0 -6.141165,-0.786034 -7.957025,-2.358104 -1.807462,-1.572066 -2.711191,-3.867116 -2.71119,-6.885159 -1e-6,-3.018025 0.916338,-5.363517 2.74902,-7.036482 1.841081,-1.68134 4.421962,-2.522018 7.742652,-2.522036 0.991988,1.8e-5 1.975582,0.07568 2.950783,0.226983 0.983578,0.142933 1.954561,0.357306 2.912952,0.643119 m -34.879974,-0.403527 5.964616,0 5.195395,10.743876 c 0.17653,0.361498 0.382496,0.865905 0.617899,1.513222 0.235376,0.63892 0.495987,1.424954 0.781831,2.358104 -0.151336,-0.882709 -0.264827,-1.693963 -0.340475,-2.433766 -0.06727,-0.73979 -0.100895,-1.416536 -0.100881,-2.030239 l 0,-10.151197 4.312682,0 0,17.919069 -5.939395,0 -5.397158,-11.134791 c -0.252211,-0.512802 -0.483397,-1.067649 -0.69356,-1.664544 -0.210176,-0.605275 -0.403532,-1.261004 -0.580069,-1.967188 0.16813,1.067676 0.290029,2.051269 0.365695,2.950783 0.08406,0.89113 0.126096,1.677164 0.126102,2.358104 l 0,9.457636 -4.312682,0 0,-17.919069 m -7.389777,0 4.779259,0 0,17.919069 -4.779259,0 0,-17.919069" />
</svg>
